<svg width="300" height="300" viewBox="0 0 300 300" fill="none" xmlns="http://www.w3.org/2000/svg">
<rect width="300" height="300" fill="#F3F4F6"/>
<path d="M150 80C118.069 80 92 106.069 92 138L92 162C22 162 22 192 22 192L228 192C228 192 228 162 158 162L158 138C158 106.069 131.931 80 100 80H150Z" fill="#E2E8F0"/>
<path d="M150 120C128.343 120 110 138.343 110 160L110 180C110 180 110 190 120 190L180 190C190 190 190 180 190 180L190 160C190 138.343 171.657 120 150 120Z" fill="#D1F5FE"/>
<path d="M130 140C130 138.343 131.343 137 133 137L167 137C168.657 137 170 138.343 170 140L170 160C170 161.657 168.657 163 167 163L133 163C131.343 163 130 161.657 130 160L130 140Z" fill="#A7F3F0"/>
<svg x="125" y="100" width="50" height="50" viewBox="0 0 24 24" fill="none" xmlns="http://www.w3.org/2000/svg">
<path d="M12 2C13.1 2 14 2.9 14 4V6C14 7.1 13.1 8 12 8C10.9 8 10 7.1 10 6V4C10 2.9 10.9 2 12 2Z" fill="#6366F1"/>
<path d="M12 16C13.1 16 14 16.9 14 18V20C14 21.1 13.1 22 12 22C10.9 22 10 21.1 10 20V18C10 16.9 10.9 16 12 16Z" fill="#6366F1"/>
<path d="M2 11C2 9.9 2.9 9 4 9H6C7.1 9 8 9.9 8 11C8 12.1 7.1 13 6 13H4C2.9 13 2 12.1 2 11Z" fill="#6366F2"/>
<path d="M18 11C18 9.9 18.9 9 20 9H22C23.1 9 24 9.9 24 11C24 12.1 23.1 13 22 13H20C18.9 13 18 12.1 18 11Z" fill="#6366F2"/>
</svg>
<text x="150" y="240" text-anchor="middle" fill="#64748B" font-family="Inter" font-size="14" font-weight="400">No image loaded</text>
</svg>
